<?xml version="1.0"?>
<svg width="612" height="222" xmlns="http://www.w3.org/2000/svg" xmlns:svg="http://www.w3.org/2000/svg">
 <metadata/>
 <style type="text/css"/>
 <g>
  <title>Layer 1</title>
  <path fill="#f1a15c" class="st0" d="m33.8,170.6c-7.5,-0.3 -9.9,0.2 -9.9,-6.7c0,-4.8 4.4,-4.7 13.5,-4.7c7.6,0 11.3,0 11.3,3.9l0,1.5l7.5,0l0,-1.5c0,-8.7 -10.4,-9 -18.8,-9c-13,0 -21,0.2 -21,11.4c0,10.9 10.5,10.1 21,10.6c8.8,0.4 12.6,-0.9 12.6,6.3c0,6.8 -7.6,5.9 -12.6,5.9c-11,0 -13.8,-0.8 -13.8,-4.5l0,-3l-7.5,0l0,3.6c0,8.6 10.9,9 21.4,9c10.7,0 20.1,-0.4 20.1,-11.3c-0.1,-12.5 -11.4,-10.9 -23.8,-11.5zm47.1,-16.5c-17.9,0 -21.4,3.4 -21.4,19.7c0,16.2 3.5,19.7 21.4,19.7c17.9,0 21.4,-3.5 21.4,-19.7c0,-16.3 -3.5,-19.7 -21.4,-19.7zm0,34.7c-12.9,0 -13.8,-1.6 -13.8,-15c0,-13.4 0.9,-15 13.8,-15c12.9,0 13.8,1.6 13.8,15c0,13.4 -0.9,15 -13.8,15zm58.4,-10.5c0,9.2 -5.2,10.5 -15.4,10.5c-9.4,0 -9.9,-3.3 -9.9,-9.5l0,-24.7l-7.2,0l0,24.7c0,10.1 4.5,14.2 17.2,14.2c6.3,0 12.5,-0.9 15,-5.6l0.2,0l0,5.1l7.3,0l0,-38.5l-7.2,0l0,23.8zm35.9,-24.2c-5.5,0 -12.6,0.5 -14.9,5.1l-0.2,0l0,-4.7l-7.1,0l0,38.5l7.2,0l0,-22.5c0,-8.9 2.6,-11.8 14.4,-11.8c8.2,0 11.6,1.2 11.6,8.2l0,26l7.2,0l0,-25.6c0.2,-10.6 -5.8,-13.2 -18.2,-13.2zm57.4,-16.1l0,21.3l-0.2,0c-2.1,-4.7 -10.2,-5.2 -15.5,-5.2c-17.2,0 -18.9,8.1 -18.9,19.7c0,11.7 1.7,19.7 18.9,19.7c6.5,0 12.7,-0.8 15.5,-5.4l0.2,0.1l0,4.8l7.2,0l0,-55l-7.2,0zm-13.4,50.8c-10.4,0 -13.7,-1.6 -13.7,-15c0,-13.5 2.6,-15 13.7,-15c11.8,0 13.4,4.5 13.4,15c0,11.9 -2.1,15 -13.4,15z" id="svg_1"/>
  <path fill="#8e979d" class="st1" d="m326.2,154.5l-8.4,0l-10.9,14.1l-11.2,-14.1l-8.2,0l15.6,18.4l-17.4,20.1l8.7,0l12.5,-15.6l12.5,15.6l8.7,0l-17.2,-20.1l15.3,-18.4zm34.3,26.5c0,7 -3.3,7.8 -12.4,7.8c-14.1,0 -14.7,-3.3 -14.7,-14.2c0,-12.3 0.3,-15.8 13.1,-15.8c8.3,0 13.1,0.1 13.1,7.1l0,1.2l7.2,0l0,-1c0,-10.9 -9.2,-12 -20.8,-12c-17.4,0 -20.2,6.4 -20.2,18.9c0,14.3 1.4,20.5 21.4,20.5c11.5,0 20.4,-1.4 20.4,-12.3l0,-2.1l-7.2,0l0,1.9l0.1,0zm33.2,-26.9c-5.5,0 -12.6,0.5 -14.9,5.1l-0.2,0l0,-21.2l-7.2,0l0,55l7.2,0l0,-22.5c0,-8.9 2.6,-11.8 14.4,-11.8c8.2,0 11.6,1.2 11.6,8.2l0,26l7.2,0l0,-25.6c0.3,-10.6 -5.7,-13.2 -18.1,-13.2zm43.5,0c-10.7,-0.1 -19.3,0.6 -19.3,10.5l0,0.8l7.5,0l0,-1.4c-0.1,-5.3 6.9,-5.3 12.6,-5.3c8.2,0 12.8,0.7 12.8,7.7l0,7.1l-0.5,0c-1,-3.5 -10.4,-3.9 -15.1,-3.9c-11.9,0 -18.8,1.5 -18.8,12.1c0,10.1 7.5,11.7 18.3,11.7c6.1,0 13.1,-0.2 15.9,-4.6l0.2,0.1l0,4l7.2,0l0,-26.3c0.2,-11.6 -8.7,-12.6 -20.8,-12.5zm-1.1,34.7c-8.3,0 -12.1,-0.4 -12.1,-7.7c0,-6.2 3.5,-6.7 12.1,-6.7c9.2,0 14.6,-0.1 14.6,7.2c0,7 -7.3,7.2 -14.6,7.2zm50.4,-34.7c-5.5,0 -12.6,0.5 -14.9,5.1l-0.2,0l0,-4.7l-7.2,0l0,38.5l7.2,0l0,-22.5c0,-8.9 2.6,-11.8 14.4,-11.8c8.2,0 11.6,1.2 11.6,8.2l0,26l7.2,0l0,-25.6c0.3,-10.6 -5.7,-13.2 -18.1,-13.2zm57.6,5.3l-0.2,0.1c-2.8,-4.6 -8.8,-5.4 -15.5,-5.4c-16.5,0 -19,6.9 -19,19.7c0,13.2 3.4,19.7 19,19.7c5.7,0 13.5,-0.5 15.5,-5.2l0.2,0l0,8.9c-0.1,7.6 -5.3,8.3 -13.9,8.3c-7.6,0 -12,-0.4 -12,-7.9l-7.2,0c-0.7,11.2 8.1,12.5 19.3,12.5c11.6,0 21.2,-2.3 21.2,-12.5l0,-43.1l-7.2,0l0,4.9l-0.2,0zm-13.9,29.4c-14,0 -13.2,-5.7 -13.2,-15c0,-10.1 -0.2,-15 13.2,-15c13,0 13.9,4.3 13.9,15c0,8.6 0,15 -13.9,15zm-284.8,-15.1c0,12.3 3.1,19.1 13.4,19.1l25.2,0l0,-5.5l-25.8,0c-4,0 -5.2,-4.9 -5.2,-11.3l31,0l0,-5l-31,0c0,-6 0.9,-11 4.9,-11l26.1,0l0,-5.5l-25.2,0c-10.1,0 -13.4,6.4 -13.4,19.2zm322.6,-13.7l34.7,0l0,-5.5l-33.7,0c-10.1,0 -13.4,6.4 -13.4,19.2c0,12.3 3.1,19.1 13.4,19.1l33.8,0l0,-5.5l-34.4,0c-4,0 -5.2,-4.9 -5.2,-11.3l33.2,0l0,-5l-33.2,0c0,-5.9 0.9,-11 4.8,-11z" id="svg_2"/>
  <path class="st2" d="m511.6,15c-30.3,0 -84.1,12.5 -116.7,25.9c-37.5,15.5 -55.4,27.7 -102.4,27.7c-49.6,0 -83.8,-16.4 -116.2,-39l-73,52.9c20.2,17.7 69.7,33.9 100.3,33.9c100.3,0 142.7,-46.2 173.5,-55.3c49.7,-14.7 77,1.1 77,1.1c14.4,-6.6 51.9,-28.4 64.6,-37c12.8,-8.8 7.2,-10.2 -7.1,-10.2zm-100.8,49.4c-20.7,0 -37.5,5.4 -37.5,12c0,6.6 16.8,12 37.5,12c20.7,0 37.5,-5.4 37.5,-12c0,-6.6 -16.8,-12 -37.5,-12z" id="svg_3" fill="#f1a15c"/>
 </g>
</svg>