<?xml version="1.0" encoding="utf-8"?>
<!-- Generator: Adobe Illustrator 19.2.1, SVG Export Plug-In . SVG Version: 6.00 Build 0)  -->
<svg version="1.1" id="Layer_1" xmlns="http://www.w3.org/2000/svg" xmlns:xlink="http://www.w3.org/1999/xlink" x="0px" y="0px"
	 width="612px" height="222px" viewBox="0 0 612 222" style="enable-background:new 0 0 612 222;" xml:space="preserve">
<metadata><?xpacket begin="﻿" id="W5M0MpCehiHzreSzNTczkc9d"?>
<x:xmpmeta xmlns:x="adobe:ns:meta/" x:xmptk="Adobe XMP Core 5.6-c111 79.158366, 2015/09/25-01:12:00        ">
   <rdf:RDF xmlns:rdf="http://www.w3.org/1999/02/22-rdf-syntax-ns#">
      <rdf:Description rdf:about=""/>
   </rdf:RDF>
</x:xmpmeta>
                                                                                                    
                                                                                                    
                                                                                                    
                                                                                                    
                                                                                                    
                                                                                                    
                                                                                                    
                                                                                                    
                                                                                                    
                                                                                                    
                                                                                                    
                                                                                                    
                                                                                                    
                                                                                                    
                                                                                                    
                                                                                                    
                                                                                                    
                                                                                                    
                                                                                                    
                                                                                                    
                           
<?xpacket end="w"?></metadata>
<style type="text/css">
	
</style>
<path class="st0" d="M33.8,170.6c-7.5-0.3-9.9,0.2-9.9-6.7c0-4.8,4.4-4.7,13.5-4.7c7.6,0,11.3,0,11.3,3.9v1.5h7.5v-1.5
	c0-8.7-10.4-9-18.8-9c-13,0-21,0.2-21,11.4c0,10.9,10.5,10.1,21,10.6c8.8,0.4,12.6-0.9,12.6,6.3c0,6.8-7.6,5.9-12.6,5.9
	c-11,0-13.8-0.8-13.8-4.5v-3h-7.5v3.6c0,8.6,10.9,9,21.4,9c10.7,0,20.1-0.4,20.1-11.3C57.5,169.6,46.2,171.2,33.8,170.6z
	 M80.9,154.1c-17.9,0-21.4,3.4-21.4,19.7c0,16.2,3.5,19.7,21.4,19.7c17.9,0,21.4-3.5,21.4-19.7C102.3,157.5,98.8,154.1,80.9,154.1z
	 M80.9,188.8c-12.9,0-13.8-1.6-13.8-15c0-13.4,0.9-15,13.8-15c12.9,0,13.8,1.6,13.8,15C94.7,187.2,93.8,188.8,80.9,188.8z
	 M139.3,178.3c0,9.2-5.2,10.5-15.4,10.5c-9.4,0-9.9-3.3-9.9-9.5v-24.7h-7.2v24.7c0,10.1,4.5,14.2,17.2,14.2c6.3,0,12.5-0.9,15-5.6
	h0.2v5.1h7.3v-38.5h-7.2V178.3z M175.2,154.1c-5.5,0-12.6,0.5-14.9,5.1h-0.2v-4.7H153V193h7.2v-22.5c0-8.9,2.6-11.8,14.4-11.8
	c8.2,0,11.6,1.2,11.6,8.2v26h7.2v-25.6C193.6,156.7,187.6,154.1,175.2,154.1z M232.6,138v21.3h-0.2c-2.1-4.7-10.2-5.2-15.5-5.2
	c-17.2,0-18.9,8.1-18.9,19.7c0,11.7,1.7,19.7,18.9,19.7c6.5,0,12.7-0.8,15.5-5.4l0.2,0.1v4.8h7.2v-55H232.6z M219.2,188.8
	c-10.4,0-13.7-1.6-13.7-15c0-13.5,2.6-15,13.7-15c11.8,0,13.4,4.5,13.4,15C232.6,185.7,230.5,188.8,219.2,188.8z"/>
<path class="st1" d="M326.2,154.5h-8.4l-10.9,14.1l-11.2-14.1h-8.2l15.6,18.4L285.7,193h8.7l12.5-15.6l12.5,15.6h8.7l-17.2-20.1
	L326.2,154.5z M360.5,181c0,7-3.3,7.8-12.4,7.8c-14.1,0-14.7-3.3-14.7-14.2c0-12.3,0.3-15.8,13.1-15.8c8.3,0,13.1,0.1,13.1,7.1v1.2
	h7.2v-1c0-10.9-9.2-12-20.8-12c-17.4,0-20.2,6.4-20.2,18.9c0,14.3,1.4,20.5,21.4,20.5c11.5,0,20.4-1.4,20.4-12.3v-2.1h-7.2V181z
	 M393.7,154.1c-5.5,0-12.6,0.5-14.9,5.1h-0.2V138h-7.2v55h7.2v-22.5c0-8.9,2.6-11.8,14.4-11.8c8.2,0,11.6,1.2,11.6,8.2v26h7.2v-25.6
	C412.1,156.7,406.1,154.1,393.7,154.1z M437.2,154.1c-10.7-0.1-19.3,0.6-19.3,10.5v0.8h7.5V164c-0.1-5.3,6.9-5.3,12.6-5.3
	c8.2,0,12.8,0.7,12.8,7.7v7.1h-0.5c-1-3.5-10.4-3.9-15.1-3.9c-11.9,0-18.8,1.5-18.8,12.1c0,10.1,7.5,11.7,18.3,11.7
	c6.1,0,13.1-0.2,15.9-4.6l0.2,0.1v4h7.2v-26.3C458.2,155,449.3,154,437.2,154.1z M436.1,188.8c-8.3,0-12.1-0.4-12.1-7.7
	c0-6.2,3.5-6.7,12.1-6.7c9.2,0,14.6-0.1,14.6,7.2C450.7,188.6,443.4,188.8,436.1,188.8z M486.5,154.1c-5.5,0-12.6,0.5-14.9,5.1h-0.2
	v-4.7h-7.2V193h7.2v-22.5c0-8.9,2.6-11.8,14.4-11.8c8.2,0,11.6,1.2,11.6,8.2v26h7.2v-25.6C504.9,156.7,498.9,154.1,486.5,154.1z
	 M544.1,159.4l-0.2,0.1c-2.8-4.6-8.8-5.4-15.5-5.4c-16.5,0-19,6.9-19,19.7c0,13.2,3.4,19.7,19,19.7c5.7,0,13.5-0.5,15.5-5.2h0.2v8.9
	c-0.1,7.6-5.3,8.3-13.9,8.3c-7.6,0-12-0.4-12-7.9h-7.2c-0.7,11.2,8.1,12.5,19.3,12.5c11.6,0,21.2-2.3,21.2-12.5v-43.1h-7.2V159.4z
	 M530.2,188.8c-14,0-13.2-5.7-13.2-15c0-10.1-0.2-15,13.2-15c13,0,13.9,4.3,13.9,15C544.1,182.4,544.1,188.8,530.2,188.8z
	 M245.4,173.7c0,12.3,3.1,19.1,13.4,19.1h25.2v-5.5h-25.8c-4,0-5.2-4.9-5.2-11.3h31v-5h-31c0-6,0.9-11,4.9-11h26.1v-5.5h-25.2
	C248.7,154.5,245.4,160.9,245.4,173.7z M568,160h34.7v-5.5H569c-10.1,0-13.4,6.4-13.4,19.2c0,12.3,3.1,19.1,13.4,19.1h33.8v-5.5
	h-34.4c-4,0-5.2-4.9-5.2-11.3h33.2v-5h-33.2C563.2,165.1,564.1,160,568,160z"/>
<path class="st2" d="M511.6,15c-30.3,0-84.1,12.5-116.7,25.9c-37.5,15.5-55.4,27.7-102.4,27.7c-49.6,0-83.8-16.4-116.2-39l-73,52.9
	c20.2,17.7,69.7,33.9,100.3,33.9c100.3,0,142.7-46.2,173.5-55.3c49.7-14.7,77,1.1,77,1.1c14.4-6.6,51.9-28.4,64.6-37
	C531.5,16.4,525.9,15,511.6,15z M410.8,64.4c-20.7,0-37.5,5.4-37.5,12c0,6.6,16.8,12,37.5,12c20.7,0,37.5-5.4,37.5-12
	C448.3,69.8,431.5,64.4,410.8,64.4z"/>
</svg>
